<mxfile host="Electron" agent="Mozilla/5.0 (X11; Linux x86_64) AppleWebKit/537.36 (KHTML, like Gecko) draw.io/24.7.8 Chrome/128.0.6613.36 Electron/32.0.1 Safari/537.36" version="24.7.8">
  <diagram id="op2RvhlZ_pXeCVfNmRPd" name="Page-1">
    <mxGraphModel dx="1114" dy="875" grid="1" gridSize="10" guides="1" tooltips="1" connect="1" arrows="1" fold="1" page="1" pageScale="1" pageWidth="850" pageHeight="1100" math="0" shadow="0">
      <root>
        <mxCell id="0" />
        <mxCell id="1" parent="0" />
        <mxCell id="Rk9XNZG_bzITVzAWhecP-11" value="REST API" style="text;html=1;align=center;verticalAlign=middle;resizable=0;points=[];autosize=1;" parent="1" vertex="1">
          <mxGeometry x="220" y="411" width="80" height="30" as="geometry" />
        </mxCell>
        <mxCell id="c_wKtQzdgKf9K8ImWiZc-1" value="Server A" style="ellipse;whiteSpace=wrap;html=1;aspect=fixed;gradientColor=#b3b3b3;fillColor=#f5f5f5;shadow=0;strokeWidth=1;" vertex="1" parent="1">
          <mxGeometry x="264" y="460" width="80" height="80" as="geometry" />
        </mxCell>
        <mxCell id="c_wKtQzdgKf9K8ImWiZc-2" value="&lt;b&gt;Your Application&lt;/b&gt;" style="ellipse;whiteSpace=wrap;html=1;aspect=fixed;gradientColor=#b3b3b3;fillColor=#f5f5f5;shadow=0;strokeWidth=2;" vertex="1" parent="1">
          <mxGeometry x="460" y="460" width="80" height="80" as="geometry" />
        </mxCell>
        <mxCell id="c_wKtQzdgKf9K8ImWiZc-3" value="Message Bus" style="html=1;fillColor=#CCCCCC;strokeColor=#6881B3;gradientColor=none;gradientDirection=north;strokeWidth=2;shape=mxgraph.networks.bus;gradientColor=none;gradientDirection=north;fontColor=#ffffff;perimeter=backbonePerimeter;backboneSize=20;" vertex="1" parent="1">
          <mxGeometry x="265" y="600" width="365" height="20" as="geometry" />
        </mxCell>
        <mxCell id="c_wKtQzdgKf9K8ImWiZc-4" value="" style="strokeColor=#6881B3;edgeStyle=none;rounded=0;endArrow=none;html=1;strokeWidth=2;" edge="1" target="c_wKtQzdgKf9K8ImWiZc-3" parent="1" source="c_wKtQzdgKf9K8ImWiZc-1">
          <mxGeometry relative="1" as="geometry">
            <mxPoint x="305" y="540" as="sourcePoint" />
          </mxGeometry>
        </mxCell>
        <mxCell id="c_wKtQzdgKf9K8ImWiZc-5" value="" style="strokeColor=#6881B3;edgeStyle=none;rounded=0;endArrow=none;html=1;strokeWidth=2;" edge="1" parent="1">
          <mxGeometry relative="1" as="geometry">
            <mxPoint x="395" y="540" as="sourcePoint" />
            <mxPoint x="395" y="600" as="targetPoint" />
          </mxGeometry>
        </mxCell>
        <mxCell id="c_wKtQzdgKf9K8ImWiZc-6" value="" style="strokeColor=#6881B3;edgeStyle=none;rounded=0;endArrow=none;html=1;strokeWidth=2;" edge="1" parent="1" source="c_wKtQzdgKf9K8ImWiZc-2">
          <mxGeometry relative="1" as="geometry">
            <mxPoint x="500" y="540" as="sourcePoint" />
            <mxPoint x="500" y="600" as="targetPoint" />
          </mxGeometry>
        </mxCell>
        <mxCell id="c_wKtQzdgKf9K8ImWiZc-7" value="" style="strokeColor=#6881B3;edgeStyle=none;rounded=0;endArrow=none;html=1;strokeWidth=2;" edge="1" parent="1">
          <mxGeometry relative="1" as="geometry">
            <mxPoint x="559" y="540" as="sourcePoint" />
            <mxPoint x="559" y="600" as="targetPoint" />
          </mxGeometry>
        </mxCell>
        <mxCell id="c_wKtQzdgKf9K8ImWiZc-8" value="" style="strokeColor=#6881B3;edgeStyle=none;rounded=0;endArrow=none;html=1;strokeWidth=2;" edge="1" target="c_wKtQzdgKf9K8ImWiZc-3" parent="1">
          <mxGeometry relative="1" as="geometry">
            <mxPoint x="305" y="680" as="sourcePoint" />
          </mxGeometry>
        </mxCell>
        <mxCell id="c_wKtQzdgKf9K8ImWiZc-9" value="" style="strokeColor=#6881B3;edgeStyle=none;rounded=0;endArrow=none;html=1;strokeWidth=2;" edge="1" parent="1">
          <mxGeometry relative="1" as="geometry">
            <mxPoint x="405" y="680" as="sourcePoint" />
            <mxPoint x="405" y="619" as="targetPoint" />
          </mxGeometry>
        </mxCell>
        <mxCell id="c_wKtQzdgKf9K8ImWiZc-10" value="" style="strokeColor=#6881B3;edgeStyle=none;rounded=0;endArrow=none;html=1;strokeWidth=2;" edge="1" parent="1">
          <mxGeometry relative="1" as="geometry">
            <mxPoint x="488" y="680" as="sourcePoint" />
            <mxPoint x="488" y="619" as="targetPoint" />
          </mxGeometry>
        </mxCell>
        <mxCell id="c_wKtQzdgKf9K8ImWiZc-11" value="" style="strokeColor=#6881B3;edgeStyle=none;rounded=0;endArrow=none;html=1;strokeWidth=2;" edge="1" parent="1" source="c_wKtQzdgKf9K8ImWiZc-14">
          <mxGeometry relative="1" as="geometry">
            <mxPoint x="577" y="680" as="sourcePoint" />
            <mxPoint x="577" y="619" as="targetPoint" />
          </mxGeometry>
        </mxCell>
        <mxCell id="c_wKtQzdgKf9K8ImWiZc-14" value="" style="verticalAlign=top;verticalLabelPosition=bottom;labelPosition=center;align=center;html=1;outlineConnect=0;fillColor=#dae8fc;strokeColor=#6c8ebf;gradientColor=#7ea6e0;gradientDirection=south;strokeWidth=2;shape=mxgraph.networks.storage;" vertex="1" parent="1">
          <mxGeometry x="550" y="649" width="53" height="60" as="geometry" />
        </mxCell>
        <mxCell id="c_wKtQzdgKf9K8ImWiZc-16" value="" style="fontColor=#0066CC;verticalAlign=top;verticalLabelPosition=bottom;labelPosition=center;align=center;html=1;outlineConnect=0;fillColor=#CCCCCC;strokeColor=#6881B3;gradientColor=none;gradientDirection=north;strokeWidth=2;shape=mxgraph.networks.users;" vertex="1" parent="1">
          <mxGeometry x="390" y="311" width="90" height="100" as="geometry" />
        </mxCell>
        <mxCell id="c_wKtQzdgKf9K8ImWiZc-18" value="" style="edgeStyle=orthogonalEdgeStyle;rounded=0;orthogonalLoop=1;jettySize=auto;html=1;endArrow=none;endFill=0;" edge="1" parent="1" source="c_wKtQzdgKf9K8ImWiZc-17" target="c_wKtQzdgKf9K8ImWiZc-16">
          <mxGeometry relative="1" as="geometry" />
        </mxCell>
        <mxCell id="c_wKtQzdgKf9K8ImWiZc-17" value="Browser" style="rounded=0;whiteSpace=wrap;html=1;gradientColor=#b3b3b3;fillColor=#f5f5f5;shadow=0;strokeWidth=1;" vertex="1" parent="1">
          <mxGeometry x="258" y="336" width="91" height="50" as="geometry" />
        </mxCell>
        <mxCell id="c_wKtQzdgKf9K8ImWiZc-19" style="edgeStyle=none;rounded=0;orthogonalLoop=1;jettySize=auto;html=1;strokeColor=#FF9933;strokeWidth=2;startArrow=classic;startFill=1;" edge="1" parent="1" source="c_wKtQzdgKf9K8ImWiZc-17" target="c_wKtQzdgKf9K8ImWiZc-1">
          <mxGeometry relative="1" as="geometry">
            <mxPoint x="190" y="91" as="sourcePoint" />
            <mxPoint x="290" y="91" as="targetPoint" />
          </mxGeometry>
        </mxCell>
      </root>
    </mxGraphModel>
  </diagram>
</mxfile>
